<svg width="1058" height="1058" viewBox="0 0 1058 1058" fill="none" xmlns="http://www.w3.org/2000/svg">
<g filter="url(#filter0_d_1030_9)">
<circle cx="529" cy="525" r="500" fill="#012041"/>
<circle cx="529" cy="525" r="500" stroke="url(#paint0_linear_1030_9)" stroke-width="50"/>
</g>
<path d="M502.418 607.984C502.418 626.308 499.194 643.105 492.747 658.375C486.639 673.306 477.647 686.2 465.77 697.059C453.893 707.578 439.472 715.722 422.505 721.491C405.538 727.26 386.366 730.144 364.988 730.144C343.61 730.144 324.438 727.26 307.471 721.491C290.504 715.722 276.083 707.578 264.206 697.059C252.329 686.2 243.167 673.306 236.72 658.375C230.612 643.105 227.558 626.308 227.558 607.984V413.546C231.291 412.867 237.229 412.019 245.373 411.001C253.517 409.644 261.322 408.965 268.787 408.965C276.592 408.965 283.378 409.644 289.147 411.001C295.255 412.019 300.345 414.055 304.417 417.109C308.489 420.163 311.543 424.405 313.579 429.834C315.615 435.263 316.633 442.389 316.633 451.212V606.457C316.633 622.745 321.044 635.47 329.867 644.632C339.029 653.794 350.736 658.375 364.988 658.375C379.579 658.375 391.286 653.794 400.109 644.632C408.932 635.47 413.343 622.745 413.343 606.457V413.546C417.076 412.867 423.014 412.019 431.158 411.001C439.302 409.644 447.107 408.965 454.572 408.965C462.377 408.965 469.163 409.644 474.932 411.001C481.04 412.019 486.13 414.055 490.202 417.109C494.274 420.163 497.328 424.405 499.364 429.834C501.4 435.263 502.418 442.389 502.418 451.212V607.984ZM751.86 711.82C747.109 715.892 739.644 719.455 729.464 722.509C719.623 725.563 708.764 727.09 696.888 727.09C682.636 727.09 670.42 725.054 660.24 720.982C650.06 716.571 643.103 710.632 639.371 703.167C635.638 695.362 631.057 685.352 625.628 673.136C620.198 660.581 614.43 646.668 608.322 631.398C602.553 616.128 596.445 600.01 589.998 583.043C583.89 565.737 577.951 548.261 572.183 530.616C566.414 512.971 560.985 495.665 555.895 478.698C550.805 461.731 546.393 445.783 542.661 430.852C547.411 426.101 554.198 421.86 563.021 418.127C572.183 414.055 581.854 412.019 592.034 412.019C604.589 412.019 614.769 414.734 622.574 420.163C630.718 425.253 636.656 434.924 640.389 449.176C649.551 482.431 658.713 514.328 667.875 544.868C677.376 575.069 687.217 606.627 697.397 639.542H700.451C709.613 607.645 718.944 572.863 728.446 535.197C738.286 497.531 747.618 460.035 756.441 422.708C762.549 419.654 768.996 417.109 775.783 415.073C782.909 413.037 790.883 412.019 799.706 412.019C812.261 412.019 822.95 414.903 831.773 420.672C840.595 426.101 845.007 435.263 845.007 448.158C845.007 455.623 843.14 466.482 839.408 480.734C836.014 494.986 831.433 511.104 825.665 529.089C820.235 546.734 813.958 565.228 806.832 584.57C800.045 603.912 793.089 622.236 785.963 639.542C779.176 656.509 772.729 671.609 766.621 684.843C760.513 697.738 755.592 706.73 751.86 711.82Z" fill="white"/>
<defs>
<filter id="filter0_d_1030_9" x="0" y="0" width="1058" height="1058" filterUnits="userSpaceOnUse" color-interpolation-filters="sRGB">
<feFlood flood-opacity="0" result="BackgroundImageFix"/>
<feColorMatrix in="SourceAlpha" type="matrix" values="0 0 0 0 0 0 0 0 0 0 0 0 0 0 0 0 0 0 127 0" result="hardAlpha"/>
<feOffset dy="4"/>
<feGaussianBlur stdDeviation="2"/>
<feComposite in2="hardAlpha" operator="out"/>
<feColorMatrix type="matrix" values="0 0 0 0 0 0 0 0 0 0 0 0 0 0 0 0 0 0 0.25 0"/>
<feBlend mode="normal" in2="BackgroundImageFix" result="effect1_dropShadow_1030_9"/>
<feBlend mode="normal" in="SourceGraphic" in2="effect1_dropShadow_1030_9" result="shape"/>
</filter>
<linearGradient id="paint0_linear_1030_9" x1="529" y1="25" x2="529" y2="1025" gradientUnits="userSpaceOnUse">
<stop stop-color="white"/>
<stop offset="1" stop-color="#012041"/>
</linearGradient>
</defs>
</svg>
